<?xml version="1.0" encoding="UTF-8"?>
<svg width="24" height="24" version="1.1" viewBox="0 0 24 24" xmlns="http://www.w3.org/2000/svg">
 <path d="m5.3335 5.3335h-2.6666a2.6666 2.6666 0 0 0-2.6666 2.6666v10.666h2.6666v-5.3332h2.6666v5.3332h2.6666v-10.666a2.6666 2.6666 0 0 0-2.6666-2.6666m0 5.3332h-2.6666v-2.6666h2.6666m9.3331-2.6666h-5.3332v13.333h2.6666v-5.3332h2.6666a2.6666 2.6666 0 0 0 2.6666-2.6666v-2.6666a2.6666 2.6666 0 0 0-2.6666-2.6666m0 5.3332h-2.6666v-2.6666h2.6666m7.9998 0v7.9998h1.3333v2.6666h-5.3332v-2.6666h1.3333v-7.9998h-1.3333v-2.6666h5.3332v2.6666z" fill="#fff"/>
</svg>
