<?xml version="1.0" encoding="UTF-8" standalone="no"?>
<svg
   xmlns:dc="http://purl.org/dc/elements/1.1/"
   xmlns:cc="http://creativecommons.org/ns#"
   xmlns:rdf="http://www.w3.org/1999/02/22-rdf-syntax-ns#"
   xmlns:svg="http://www.w3.org/2000/svg"
   xmlns="http://www.w3.org/2000/svg"
   id="svg4"
   viewBox="0 0 24 24"
   height="24"
   width="24"
   version="1.1">
  <metadata
     id="metadata10">
    <rdf:RDF>
      <cc:Work
         rdf:about="">
        <dc:format>image/svg+xml</dc:format>
        <dc:type
           rdf:resource="http://purl.org/dc/dcmitype/StillImage" />
        <dc:title></dc:title>
      </cc:Work>
    </rdf:RDF>
  </metadata>
  <defs
     id="defs8" />
  <path
     style="fill:#0019a8;fill-opacity:1"
     id="path2"
     d="M7 7H5A2 2 0 0 0 3 9V17H5V13H7V17H9V9A2 2 0 0 0 7 7M7 11H5V9H7M14 7H10V17H12V13H14A2 2 0 0 0 16 11V9A2 2 0 0 0 14 7M14 11H12V9H14M20 9V15H21V17H17V15H18V9H17V7H21V9Z" />
</svg>
