<?xml version="1.0" standalone="no"?>
<!DOCTYPE svg PUBLIC "-//W3C//DTD SVG 20010904//EN"
 "http://www.w3.org/TR/2001/REC-SVG-20010904/DTD/svg10.dtd">
<svg version="1.0" xmlns="http://www.w3.org/2000/svg"
 width="700.000000pt" height="700.000000pt" viewBox="0 0 700.000000 700.000000"
 preserveAspectRatio="xMidYMid meet">
<metadata>
Created by potrace 1.11, written by Peter Selinger 2001-2013
</metadata>
<g transform="translate(0.000000,700.000000) scale(0.100000,-0.100000)"
fill="#000000" stroke="none">
<path d="M1335 4945 c-139 -31 -263 -112 -349 -228 -31 -42 -85 -153 -91 -189
-3 -12 -8 -43 -13 -68 -4 -25 -8 -578 -7 -1230 l0 -1185 292 -1 292 -2 0 517
c0 284 0 546 0 584 l1 67 290 0 290 0 1 -62 c0 -35 1 -297 2 -583 l2 -520 290
0 290 0 -1 1185 c0 652 -3 1208 -7 1236 -28 214 -188 394 -416 471 -63 22
-774 28 -866 8z m705 -640 c1 -125 2 -409 1 -462 l-1 -53 -290 0 -290 0 -1 23
c0 18 0 498 1 547 0 13 39 15 290 15 l290 0 0 -70z"/>
<path d="M2919 4952 c-1 -4 -2 -660 -2 -1458 l-2 -1452 293 0 292 0 0 584 0
584 325 0 c195 0 345 4 377 11 203 42 390 218 444 419 15 56 18 117 19 425 2
280 -1 376 -12 430 -37 179 -171 343 -340 416 -49 21 -57 24 -132 38 -52 11
-1261 13 -1262 3z m1156 -584 c6 -4 10 -111 9 -290 l0 -283 -292 -3 -292 -2 0
292 0 293 283 0 c155 0 287 -3 292 -7z"/>
<path d="M4959 4912 c-3 -190 0 -522 4 -529 3 -5 69 -8 146 -8 l141 1 0 -873
c0 -691 -3 -873 -12 -874 -7 -1 -70 -2 -140 -3 -69 0 -129 -4 -133 -8 -5 -5
-10 -498 -6 -564 1 -9 152 -12 584 -10 l582 1 0 290 0 290 -135 1 c-74 1 -140
2 -146 3 -7 1 -10 266 -10 873 l1 873 140 0 c77 0 142 3 145 6 3 4 5 135 5
291 l0 283 -582 2 -583 2 -1 -47z"/>
</g>
</svg>
